<?xml version="1.0" standalone="no"?>
<!DOCTYPE svg PUBLIC "-//W3C//DTD SVG 20010904//EN"
 "http://www.w3.org/TR/2001/REC-SVG-20010904/DTD/svg10.dtd">
<svg version="1.0" xmlns="http://www.w3.org/2000/svg"
 width="232.000000pt" height="78.000000pt" viewBox="0 0 232.000000 78.000000"
 preserveAspectRatio="xMidYMid meet">

<g transform="translate(0.000000,78.000000) scale(0.100000,-0.100000)"
fill="#000000" stroke="none">
<path d="M300 508 c-41 -22 -51 -54 -48 -160 3 -86 6 -100 26 -120 21 -21 31
-23 132 -23 101 0 111 2 132 23 21 21 23 31 23 132 0 101 -2 111 -23 132 -20
20 -34 23 -120 26 -65 2 -105 -2 -122 -10z m70 -149 c0 -81 -2 -90 -17 -87
-15 3 -19 16 -21 77 -3 83 1 101 23 101 12 0 15 -16 15 -91z m125 48 c4 -13 5
-48 3 -77 -2 -43 -7 -56 -20 -58 -16 -3 -18 5 -18 71 0 40 3 77 7 80 12 13 23
7 28 -16z m-65 -83 c0 -41 -4 -54 -15 -54 -11 0 -15 13 -15 53 0 30 3 57 6 60
15 15 24 -8 24 -59z"/>
<path d="M1090 360 c0 -91 3 -110 15 -110 12 0 15 19 15 110 0 91 -3 110 -15
110 -12 0 -15 -19 -15 -110z"/>
<path d="M1467 464 c-4 -4 -7 -24 -7 -45 0 -37 -1 -38 -25 -29 -36 14 -73 -6
-84 -44 -8 -33 2 -75 22 -88 18 -12 62 -9 75 4 9 9 12 9 12 0 0 -7 9 -12 20
-12 20 0 21 5 18 107 -3 98 -11 127 -31 107z m-26 -104 c38 -21 18 -80 -27
-80 -35 0 -48 61 -16 79 21 13 20 13 43 1z"/>
<path d="M690 445 c0 -10 10 -15 30 -15 l30 0 0 -90 c0 -83 1 -90 20 -90 19 0
20 7 20 90 l0 90 30 0 c20 0 30 5 30 15 0 12 -16 15 -80 15 -64 0 -80 -3 -80
-15z"/>
<path d="M1012 443 c2 -10 10 -18 18 -18 8 0 16 8 18 18 2 12 -3 17 -18 17
-15 0 -20 -5 -18 -17z"/>
<path d="M1215 448 c-2 -7 -18 -51 -35 -97 -16 -47 -30 -88 -30 -93 0 -19 31
-6 42 17 9 20 18 25 50 25 32 0 40 -4 48 -25 9 -23 40 -36 40 -16 0 5 -15 51
-34 102 -27 75 -38 95 -55 97 -12 2 -23 -3 -26 -10z m42 -83 c11 -34 11 -35
-17 -35 -28 0 -28 1 -17 35 6 19 13 35 17 35 4 0 11 -16 17 -35z"/>
<path d="M1794 449 c-8 -14 11 -33 25 -25 16 10 13 36 -3 36 -8 0 -18 -5 -22
-11z"/>
<path d="M884 390 c-24 -10 -39 -28 -30 -37 3 -4 17 -1 30 7 25 13 56 8 56 -8
0 -5 -14 -12 -32 -16 -41 -8 -58 -23 -58 -52 0 -27 17 -33 83 -32 l47 1 0 41
c0 60 -9 82 -36 95 -29 13 -32 13 -60 1z m54 -97 c-4 -20 -35 -30 -50 -15 -15
15 0 32 28 32 19 0 25 -5 22 -17z"/>
<path d="M1607 393 c-4 -3 -23 -6 -42 -5 l-35 1 0 -69 c0 -63 2 -70 20 -70 17
0 20 7 20 48 0 55 14 76 42 61 14 -7 18 -21 18 -59 0 -38 4 -50 15 -50 11 0
15 12 15 44 0 48 20 79 45 70 11 -4 15 -22 15 -60 0 -47 2 -54 20 -54 18 0 20
7 20 55 0 42 -5 60 -21 76 -20 20 -51 19 -73 -1 -5 -5 -19 -2 -31 6 -12 8 -25
11 -28 7z"/>
<path d="M1937 393 c-4 -3 -20 -6 -37 -5 l-30 1 0 -70 c0 -55 3 -69 15 -69 11
0 15 12 15 44 0 54 21 81 51 66 15 -8 19 -22 19 -60 0 -38 4 -50 15 -50 12 0
15 13 15 59 0 51 -3 62 -22 75 -25 18 -32 19 -41 9z"/>
<path d="M1010 320 c0 -63 2 -70 20 -70 18 0 20 7 20 70 0 63 -2 70 -20 70
-18 0 -20 -7 -20 -70z"/>
<path d="M1790 320 c0 -63 2 -70 20 -70 18 0 20 7 20 70 0 63 -2 70 -20 70
-18 0 -20 -7 -20 -70z"/>
</g>
</svg>
